# xmcd
#
# Track frame offsets:
#	150
#	18917
#	30268
#	39478
#	56177
#	66746
#	79097
#	89854
#	102657
#	115683
#	127737
#	136411
#	154963
#
# Disc length: 2258 seconds
#
# Revision: 1
# Processed by: cddbd v1.4PL0 Copyright (c) Steve Scherf et al.
# Submitted via: EasyCDDAExtractor 5.0.7
#
DISCID=b208d00d
DTITLE=CARLOS PUEBLA - COMPLICIDAD-CARLOS PUEBLA EN OTRAS VOCES
DYEAR=1900
DGENRE=Folklore
TTITLE0=CANCION DE LA ESPERANZA INUTIL
TTITLE1=SI TODO TERMINO
TTITLE2=ESTE ES MI ADIOS
TTITLE3=QUE VANO EMPEN~O
TTITLE4=LA PRIMERA MUJER A QUIEN AME
TTITLE5=DIME MI AMOR QUE VOY A HACER SIN TI
TTITLE6=Y ASI ME PAGAS
TTITLE7=POR UN ERROR
TTITLE8=SI ME ACUERDO DE TI
TTITLE9=FUE UN MOMENTO FELIZ
TTITLE10=ESTE AMOR DE NOSOTROS
TTITLE11=MIS LIRICOS ANTOJOS
TTITLE12=YO FUI SINCERO
EXTD=
EXTT0=
EXTT1=
EXTT2=
EXTT3=
EXTT4=
EXTT5=
EXTT6=
EXTT7=
EXTT8=
EXTT9=
EXTT10=
EXTT11=
EXTT12=
PLAYORDER=
